<svg viewBox="0 0 422 87" version="1.1" xmlns="http://www.w3.org/2000/svg"><path d="M62.058,45.572c-0.907,-2.245 -3.401,-3.447 -5.723,-2.76c-0.255,0.05 -0.506,0.12 -0.75,0.21l-20.88,7.928c-5.032,1.873 -10.725,0.573 -14.445,-3.3c-1.177,-1.236 -2.095,-2.695 -2.7,-4.29c-0.593,-1.55 -0.884,-3.2 -0.855,-4.86c0.147,-5.359 3.545,-10.12 8.565,-12l37.463,-14.123c-5.879,-3.778 -12.722,-5.787 -19.71,-5.787c-20,0 -36.457,16.458 -36.457,36.458c0,9.373 3.614,18.394 10.087,25.174l42.855,-16.177c2.385,-1.166 3.499,-3.994 2.55,-6.473Z"/><path d="M25.315,40.78c0.968,2.565 3.848,3.532 6.435,2.55l20.955,-7.905c5.032,-1.868 10.721,-0.565 14.438,3.307c2.341,2.476 3.596,5.79 3.48,9.195c-0.173,5.333 -3.562,10.059 -8.558,11.933l0,-0.045l-38.01,14.332c5.705,3.466 12.253,5.3 18.927,5.3c19.996,0 36.45,-16.455 36.45,-36.45c0,-9.091 -3.4,-17.861 -9.529,-24.575l-41.768,15.75c-2.569,1.057 -3.834,4.021 -2.82,6.608Z"/><path d="M13.263,68.927c-6.276,-7.186 -9.737,-16.409 -9.737,-25.95c0,-21.633 17.796,-39.438 39.429,-39.45l1.665,0c7.884,0.318 15.49,3.012 21.818,7.725l3.87,-1.44c-7.695,-6.342 -17.362,-9.812 -27.333,-9.812c-23.575,0 -42.975,19.4 -42.975,42.975c0,9.931 3.442,19.562 9.738,27.242l3.525,-1.29Z"/><path d="M76.593,16.195l-3.495,1.297c6.437,7.539 9.778,17.247 9.345,27.15c-0.851,21.023 -18.378,37.854 -39.418,37.854c-8.249,0 -16.294,-2.587 -22.997,-7.396l-3.93,1.432c7.146,5.768 15.964,9.083 25.14,9.45c0.607,0 1.207,0.038 1.807,0.038c23.569,-0.021 42.952,-19.421 42.952,-42.99c0,-9.751 -3.318,-19.217 -9.404,-26.835Z"/><path d="M110.508,32.875l0.18,0.42c0.75,1.365 2.137,1.845 3.502,2.317c3.158,1.013 6.488,1.725 9.578,3c1.269,0.539 2.485,1.197 3.63,1.965c1.646,1.102 2.993,2.594 3.922,4.343c1.638,3.315 1.594,7.222 -0.12,10.5c-1.72,3.229 -4.518,5.756 -7.905,7.14c-3.38,1.34 -7.028,1.87 -10.65,1.545c-4.428,-0.275 -8.724,-1.621 -12.517,-3.923c1.312,-2.587 4.672,-10.23 4.672,-10.23c3.14,3.117 7.412,4.833 11.835,4.755c2.378,-0.06 5.25,-1.125 4.815,-3.922c-0.04,-0.184 -0.1,-0.363 -0.18,-0.533c-0.832,-1.845 -2.557,-2.557 -4.222,-3.097c-2.618,-0.893 -5.355,-1.425 -7.965,-2.318c-2.61,-0.892 -5.175,-2.137 -7.02,-4.222c-1.952,-2.122 -3.025,-4.91 -3,-7.793c0.058,-2.893 1.18,-5.665 3.15,-7.785c2.077,-2.385 5.055,-3.81 8.145,-4.642c3.83,-1.052 7.856,-1.178 11.745,-0.368c3.165,0.608 5.002,1.2 7.342,2.783c0,0.045 -4.23,9.87 -4.365,9.997c-2.884,-3.194 -7.287,-4.583 -11.482,-3.622c-1.725,0.42 -3.683,1.612 -3.09,3.69Z"/><path d="M165.115,21.46l-4.462,10.11l-11.408,0l0,31.455l-10.11,0l0,-31.455l-9.352,0l4.672,-10.215l30.66,0.105Z"/><path d="M184.893,57.91l-16.95,0l-1.988,5.115l-10.912,0l15.997,-41.565l10.703,0l16.057,41.565l-10.942,0l-1.965,-5.115Zm-3.863,-10.133l-4.642,-12l-4.575,12l9.217,0Z"/><path d="M206.358,42.212c0.047,6.082 5.063,11.06 11.144,11.06c2.986,0 5.849,-1.2 7.943,-3.327l7.253,7.02c-3.997,4.128 -9.504,6.462 -15.25,6.462c-11.643,0 -21.225,-9.582 -21.225,-21.225c0,-11.644 9.582,-21.225 21.225,-21.225c6.207,0 12.112,2.722 16.142,7.443l-7.635,6.607c-2.106,-2.489 -5.206,-3.927 -8.467,-3.927c-6.085,0 -11.093,5.008 -11.093,11.093c0,0.009 0,0.018 0,0.027l-0.037,-0.008Z"/><path d="M257.365,38.47l16.058,24.555l-12.068,0l-10.83,-16.5l-2.82,3.3l0,13.2l-10.14,0l0,-41.445l10.14,0l0,12.607l10.823,-12.75l13.26,0l-14.423,17.033Z"/><path d="M375.88,21.58l10.11,0l0,41.445l-11.062,0l-16.298,-24.75l0,24.615l-10.11,0l0,-41.49l11.123,0l16.237,24.622l0,-24.442Z"/><path d="M389.178,21.46l32.527,0l-4.687,10.17l-17.73,0l0,5.527l17.542,0l0,10.11l-17.542,0l0,5.535l22.417,0l0,10.103l-32.527,0l0,-41.445Z"/><path d="M304.54,52.862l-18.457,0l0,-31.402l-10.11,0l0,41.565l24.825,0l3.742,-10.163Z"/><path d="M329.92,21.46l-10.702,0l-16.013,41.565l10.943,0l1.965,-5.115l16.95,0l1.957,5.115l10.935,0l-16.035,-41.565Zm-9.93,26.317l4.583,-12l4.635,12l-9.218,0Z"/></svg>