<svg xmlns="http://www.w3.org/2000/svg" viewBox="0 0 1040 192" version="1.1" >
	<g>
		<path d="M165.574,30.573c-41.636,40.158 -80.801,79.466 -150.546,93.474c4.633,10.411 14.892,25.602 22.003,35.726c73.351,-34.487 101.252,-82.599 132.632,-127.434c-1.362,-0.588 -2.758,-1.175 -4.089,-1.766Z" fill="#345167"/>
		<path d="M174.423,34.413c-32.039,45.905 -56.555,98.177 -131.769,133.757c7.34,9.318 11.307,14.777 21.074,23.83c65.235,-34.629 87.429,-97.66 112.978,-156.747c-0.758,-0.295 -1.535,-0.543 -2.283,-0.84Z" fill="#3284a0"/>
		<path d="M160.281,28.004c-40.744,39.131 -83.223,73.065 -149.438,85.951c-7.574,-20.442 -10.843,-41.387 -10.843,-62.822c49.487,-15.699 81.302,-32.294 109.581,-51.133c16.691,9.883 32.382,19.161 50.7,28.004Z" fill="#101e27"/>
	</g>
	<path d="M214.169,80.578c-2.177,1.788 -3.263,4.151 -3.263,7.101c0,2.944 1.329,5.288 3.99,7.025c2.652,1.743 8.788,3.793 18.399,6.162c9.612,2.363 17.076,5.914 22.39,10.646c5.313,4.738 7.969,11.647 7.969,20.728c0,9.076 -3.404,16.445 -10.217,22.096c-6.808,5.652 -15.773,8.475 -26.879,8.475c-16.036,0 -30.48,-5.939 -43.329,-17.823l13.475,-16.521c10.919,9.566 21.015,14.349 30.288,14.349c4.152,0 7.415,-0.894 9.783,-2.682c2.364,-1.788 3.551,-4.202 3.551,-7.248c0,-3.04 -1.258,-5.454 -3.768,-7.242c-2.515,-1.788 -7.49,-3.601 -14.924,-5.434c-11.788,-2.804 -20.41,-6.45 -25.869,-10.94c-5.46,-4.49 -8.187,-11.546 -8.187,-21.157c0,-9.611 3.449,-17.025 10.363,-22.248c6.905,-5.212 15.526,-7.823 25.864,-7.823c6.763,0 13.521,1.162 20.289,3.48c6.757,2.318 12.651,5.601 17.677,9.853l-11.45,16.521c-8.793,-6.667 -17.869,-10 -27.238,-10c-3.768,0 -6.742,0.894 -8.914,2.682" fill="#101e27"/>
	<path d="M324.948,79.921l0,81.729l-22.606,0l0,-81.729l-28.692,0l0,-19.566l79.991,0l0,19.566l-28.693,0Z" fill="#101e27"/>
	<path d="M404.359,90.502l-12.753,29.415l25.359,0l-12.606,-29.415Zm30.576,71.148l-9.42,-21.88l-42.46,0l-9.419,21.88l-24.056,0l43.763,-101.29l21.884,0l43.759,101.29l-24.051,0Z" fill="#101e27"/>
	<path d="M517.239,141.654c11.111,0 20.192,-4.394 27.243,-13.187l14.49,14.925c-11.5,12.949 -25.046,19.414 -40.647,19.414c-15.601,0 -28.45,-4.924 -38.541,-14.773c-10.101,-9.854 -15.147,-22.293 -15.147,-37.314c0,-15.025 5.147,-27.561 15.44,-37.606c10.283,-10.046 22.864,-15.071 37.738,-15.071c16.616,0 30.525,6.328 41.738,18.985l-14.051,15.94c-7.157,-8.889 -16.046,-13.334 -26.672,-13.334c-8.5,0 -15.773,2.778 -21.803,8.334c-6.036,5.555 -9.056,13.04 -9.056,22.46c0,9.419 2.843,16.98 8.545,22.677c5.697,5.702 12.607,8.55 20.728,8.55" fill="#101e27"/>
	<path d="M576.8,60.36l22.607,0l0,41.592l38.253,-41.592l27.97,0l-40.293,44.779c3.484,4.833 9.909,13.838 19.278,27.025c9.363,13.187 16.379,23.016 21.015,29.491l-26.379,0l-29.708,-39.996l-10.136,11.303l0,28.693l-22.607,0l0,-101.295Z" fill="#101e27"/>
	<path d="M738.646,150.639l0,11.011l-56.071,0l0,-101.416l11.591,0l0,90.405l44.48,0Z" fill="#3284a0"/>
	<path d="M795.016,73.416l-22.607,51.435l45.496,0l-22.889,-51.435Zm-27.526,62.592l-11.303,25.642l-12.318,0l45.495,-101.416l12.026,0l45.349,101.416l-12.607,0l-11.298,-25.642l-55.344,0Z" fill="#3284a0"/>
	<path d="M934.389,161.655l-60.849,-81.426l0,81.426l-11.591,0l0,-101.421l12.025,0l60.849,81.572l0,-81.572l11.45,0l0,101.421l-11.884,0Z" fill="#3284a0"/>
	<path d="M980.488,71.391l0,33.323l51.142,0l0,11.157l-51.142,0l0,34.768l59.112,0l0,11.016l-70.703,0l0,-101.421l68.819,0l0,11.157l-57.228,0Z" fill="#3284a0"/>
</svg>
