<?xml version="1.0" encoding="UTF-8" standalone="no"?>
<!DOCTYPE svg PUBLIC "-//W3C//DTD SVG 1.1//EN" "http://www.w3.org/Graphics/SVG/1.1/DTD/svg11.dtd">
<svg fill="white" xmlns="http://www.w3.org/2000/svg" xmlns:xlink="http://www.w3.org/1999/xlink" xmlns:serif="http://www.serif.com/" width="100%" height="100%" viewBox="0 0 129 16" version="1.1" xml:space="preserve" >
	<path d="M4.595,3.347c-0.324,0.265 -0.485,0.616 -0.485,1.054c0,0.437 0.197,0.785 0.593,1.043c0.393,0.259 1.305,0.564 2.732,0.915c1.427,0.351 2.536,0.879 3.325,1.581c0.789,0.704 1.183,1.73 1.183,3.078c0,1.348 -0.505,2.442 -1.517,3.282c-1.011,0.839 -2.342,1.258 -3.992,1.258c-2.381,0 -4.526,-0.882 -6.434,-2.647l2.001,-2.453c1.622,1.421 3.121,2.131 4.498,2.131c0.616,0 1.101,-0.133 1.452,-0.398c0.352,-0.266 0.528,-0.624 0.528,-1.077c0,-0.451 -0.187,-0.81 -0.56,-1.075c-0.373,-0.266 -1.112,-0.535 -2.216,-0.807c-1.75,-0.416 -3.031,-0.958 -3.842,-1.625c-0.81,-0.666 -1.215,-1.714 -1.215,-3.141c0,-1.428 0.512,-2.529 1.539,-3.304c1.025,-0.774 2.305,-1.162 3.841,-1.162c1.004,0 2.007,0.173 3.012,0.517c1.004,0.344 1.879,0.832 2.625,1.463l-1.7,2.453c-1.306,-0.99 -2.654,-1.485 -4.045,-1.485c-0.559,0 -1.001,0.133 -1.324,0.399" />
	<path d="M21.045,3.249l0,12.137l-3.357,0l0,-12.137l-4.261,0l0,-2.905l11.879,0l0,2.905l-4.261,0Z"/>
	<path d="M32.837,4.82l-1.894,4.368l3.766,0l-1.872,-4.368Zm4.541,10.566l-1.399,-3.249l-6.305,0l-1.399,3.249l-3.572,0l6.499,-15.042l3.249,0l6.498,15.042l-3.571,0Z"/>
	<path d="M49.6,12.416c1.65,0 2.998,-0.652 4.045,-1.958l2.152,2.216c-1.708,1.923 -3.719,2.883 -6.036,2.883c-2.317,0 -4.225,-0.731 -5.723,-2.193c-1.5,-1.464 -2.249,-3.311 -2.249,-5.541c0,-2.232 0.764,-4.093 2.292,-5.585c1.527,-1.492 3.396,-2.238 5.604,-2.238c2.468,0 4.533,0.94 6.198,2.819l-2.086,2.367c-1.063,-1.32 -2.383,-1.98 -3.961,-1.98c-1.262,0 -2.342,0.413 -3.238,1.238c-0.896,0.825 -1.345,1.936 -1.345,3.335c0,1.399 0.423,2.522 1.269,3.368c0.846,0.846 1.872,1.269 3.078,1.269"/>
	<path d="M58.445,0.344l3.357,0l0,6.177l5.68,-6.177l4.154,0l-5.984,6.65c0.517,0.718 1.471,2.055 2.863,4.013c1.39,1.958 2.432,3.418 3.121,4.379l-3.918,0l-4.411,-5.939l-1.505,1.678l0,4.261l-3.357,0l0,-15.042Z"/>
	<path d="M82.478,13.751l0,1.635l-8.326,0l0,-15.06l1.721,0l0,13.425l6.605,0Z"/>
	<path d="M90.849,2.283l-3.357,7.638l6.756,0l-3.399,-7.638Zm-4.087,9.295l-1.679,3.808l-1.829,0l6.756,-15.06l1.786,0l6.734,15.06l-1.872,0l-1.678,-3.808l-8.218,0Z"/>
	<path d="M111.657,15.386l-9.036,-12.091l0,12.091l-1.721,0l0,-15.06l1.786,0l9.036,12.113l0,-12.113l1.7,0l0,15.06l-1.765,0Z"/>
	<path d="M119.728,1.982l0,4.949l7.594,0l0,1.657l-7.594,0l0,5.163l8.778,0l0,1.635l-10.499,0l-0.001,-15.06l10.22,0l0,1.656l-8.498,0Z"/>
</svg>
